<svg width="48" height="48" viewBox="0 0 48 48" fill="none" xmlns="http://www.w3.org/2000/svg">
<g clip-path="url(#clip0_304_630)">
<rect x="-16.923" y="53.3338" width="96" height="1" transform="rotate(-60 -16.923 53.3338)" fill="#AAAAAA" fill-opacity="0.05"/>
<rect x="-6.53068" y="59.3338" width="96" height="1" transform="rotate(-60 -6.53068 59.3338)" fill="#AAAAAA" fill-opacity="0.05"/>
<rect x="-22.1191" y="50.3338" width="96" height="1" transform="rotate(-60 -22.1191 50.3338)" fill="#AAAAAA" fill-opacity="0.05"/>
<rect x="-11.7268" y="56.3338" width="96" height="1" transform="rotate(-60 -11.7268 56.3338)" fill="#AAAAAA" fill-opacity="0.05"/>
<rect x="-27.3153" y="47.3338" width="96" height="1" transform="rotate(-60 -27.3153 47.3338)" fill="#AAAAAA" fill-opacity="0.05"/>
<rect x="-32.5114" y="44.3338" width="96" height="1" transform="rotate(-60 -32.5114 44.3338)" fill="#AAAAAA" fill-opacity="0.05"/>
<rect x="-37.7076" y="41.3338" width="96" height="1" transform="rotate(-60 -37.7076 41.3338)" fill="#AAAAAA" fill-opacity="0.05"/>
<rect x="-42.9038" y="38.3338" width="96" height="1" transform="rotate(-60 -42.9038 38.3338)" fill="#AAAAAA" fill-opacity="0.05"/>
<rect x="24.6462" y="77.3338" width="96" height="1" transform="rotate(-60 24.6462 77.3338)" fill="#AAAAAA" fill-opacity="0.05"/>
<rect x="35.0385" y="83.3338" width="96" height="1" transform="rotate(-60 35.0385 83.3338)" fill="#AAAAAA" fill-opacity="0.05"/>
<rect x="19.4501" y="74.3338" width="96" height="1" transform="rotate(-60 19.4501 74.3338)" fill="#AAAAAA" fill-opacity="0.05"/>
<rect x="29.8424" y="80.3338" width="96" height="1" transform="rotate(-60 29.8424 80.3338)" fill="#AAAAAA" fill-opacity="0.05"/>
<rect x="14.2539" y="71.3338" width="96" height="1" transform="rotate(-60 14.2539 71.3338)" fill="#AAAAAA" fill-opacity="0.05"/>
<rect x="9.05778" y="68.3338" width="96" height="1" transform="rotate(-60 9.05778 68.3338)" fill="#AAAAAA" fill-opacity="0.05"/>
<rect x="3.86163" y="65.3338" width="96" height="1" transform="rotate(-60 3.86163 65.3338)" fill="#AAAAAA" fill-opacity="0.05"/>
<rect x="-1.33452" y="62.3338" width="96" height="1" transform="rotate(-60 -1.33452 62.3338)" fill="#AAAAAA" fill-opacity="0.05"/>
</g>
<defs>
<clipPath id="clip0_304_630">
<rect width="48" height="48" fill="white"/>
</clipPath>
</defs>
</svg>
