<svg width="150" height="156" viewBox="0 0 150 156" fill="none" xmlns="http://www.w3.org/2000/svg">
<rect x="36" y="84" width="50.9117" height="50.9117" transform="rotate(45 36 84)" fill="black" fill-opacity="0.2"/>
<rect x="54.7598" y="25.5457" width="50.9117" height="50.9117" transform="rotate(45 54.7598 25.5457)" fill="black" fill-opacity="0.2"/>
<rect x="93.792" y="64.578" width="50.9117" height="50.9117" transform="rotate(45 93.792 64.578)" fill="black" fill-opacity="0.2"/>
<rect x="114" y="6" width="50.9117" height="50.9117" transform="rotate(45 114 6)" fill="black" fill-opacity="0.2"/>
<rect x="36" y="78" width="50.9117" height="50.9117" transform="rotate(45 36 78)" fill="#61DAFB"/>
<path d="M36.0922 110.532C35.6949 110.532 35.3015 110.611 34.9345 110.763C34.5675 110.915 34.234 111.137 33.9531 111.418C33.6723 111.699 33.4494 112.033 33.2974 112.4C33.1454 112.767 33.0671 113.16 33.0671 113.557C33.0671 113.955 33.1454 114.348 33.2974 114.715C33.4494 115.082 33.6723 115.415 33.9531 115.696C34.234 115.977 34.5675 116.2 34.9345 116.352C35.3015 116.504 35.6949 116.582 36.0922 116.582C36.4894 116.582 36.8828 116.504 37.2498 116.352C37.6168 116.2 37.9503 115.977 38.2312 115.696C38.512 115.415 38.7349 115.082 38.8869 114.715C39.0389 114.348 39.1172 113.955 39.1172 113.557C39.1172 113.16 39.0389 112.767 38.8869 112.4C38.7349 112.033 38.512 111.699 38.2312 111.418C37.9503 111.137 37.6168 110.915 37.2498 110.763C36.8828 110.611 36.4894 110.532 36.0922 110.532ZM27.6182 119.575L26.9507 119.405C21.9755 118.148 19.1216 116.014 19.1216 113.552C19.1216 111.09 21.9755 108.956 26.9507 107.698L27.6182 107.53L27.8063 108.192C28.3103 109.928 28.9549 111.62 29.7338 113.252L29.8767 113.553L29.7338 113.854C28.9536 115.485 28.3089 117.178 27.8063 118.914L27.6182 119.575ZM26.641 109.244C22.8593 110.306 20.5386 111.931 20.5386 113.552C20.5386 115.171 22.8593 116.796 26.641 117.859C27.1034 116.389 27.6618 114.95 28.3126 113.552C27.6611 112.154 27.1027 110.715 26.641 109.244V109.244ZM44.5661 119.575L44.378 118.912C43.8745 117.175 43.2294 115.484 42.449 113.853L42.3062 113.552L42.449 113.25C43.2291 111.619 43.8742 109.927 44.378 108.19L44.5661 107.529L45.235 107.697C50.2088 108.954 53.0627 111.088 53.0627 113.552C53.0627 116.015 50.2088 118.148 45.235 119.405L44.5661 119.575V119.575ZM43.8717 113.552C44.5506 115.021 45.112 116.465 45.5433 117.859C49.3264 116.796 51.6457 115.171 51.6457 113.552C51.6457 111.931 49.325 110.308 45.5433 109.244C45.0815 110.715 44.5231 112.154 43.8717 113.552V113.552ZM26.6311 109.237L26.443 108.577C25.0443 103.647 25.4686 100.114 27.6069 98.8807C29.7041 97.6701 33.0714 99.0999 36.5999 102.722L37.0807 103.215L36.5999 103.709C35.3461 105.012 34.2006 106.415 33.1746 107.905L32.9837 108.178L32.6514 108.206C30.8467 108.348 29.0566 108.637 27.2986 109.069L26.6311 109.237V109.237ZM29.3124 99.8607C28.9334 99.8607 28.5982 99.9427 28.3154 100.105C26.9097 100.916 26.6608 103.733 27.6295 107.534C29.1365 107.199 30.6638 106.962 32.2016 106.826C33.089 105.564 34.0584 104.362 35.1036 103.228C32.8974 101.08 30.8086 99.8607 29.3124 99.8607V99.8607ZM42.8733 128.657C42.8719 128.657 42.8719 128.657 42.8733 128.657C40.8581 128.657 38.27 127.139 35.5844 124.382L35.1036 123.888L35.5844 123.395C36.8379 122.091 37.9829 120.687 39.0083 119.197L39.1992 118.924L39.5301 118.896C41.3357 118.755 43.1268 118.467 44.8857 118.035L45.5532 117.866L45.7427 118.528C47.1386 123.455 46.7157 126.99 44.5774 128.221C44.058 128.515 43.4699 128.665 42.8733 128.657V128.657ZM37.0807 123.875C39.2869 126.024 41.3757 127.243 42.8719 127.243H42.8733C43.2509 127.243 43.5875 127.161 43.8689 126.998C45.2746 126.188 45.525 123.369 44.5548 119.568C43.0474 119.904 41.5196 120.14 39.9812 120.276C39.095 121.539 38.126 122.741 37.0807 123.875V123.875ZM45.5532 109.237L44.8857 109.069C43.127 108.636 41.3359 108.347 39.5301 108.206L39.1992 108.178L39.0083 107.905C37.9835 106.415 36.8384 105.012 35.5844 103.709L35.1036 103.215L35.5844 102.722C39.1115 99.1013 42.4773 97.6715 44.5774 98.8807C46.7157 100.114 47.14 103.647 45.7427 108.575L45.5532 109.237ZM39.9812 106.826C41.5963 106.973 43.1307 107.212 44.5548 107.534C45.525 103.733 45.2746 100.916 43.8689 100.105C42.4717 99.2978 39.8455 100.535 37.0807 103.228C38.1254 104.362 39.0944 105.564 39.9812 106.826V106.826ZM29.3124 128.657C28.7153 128.666 28.1267 128.515 27.6069 128.221C25.4686 126.99 25.0443 123.457 26.443 118.528L26.6296 117.866L27.2972 118.035C28.9306 118.446 30.7323 118.736 32.65 118.896L32.9823 118.924L33.1718 119.197C34.1979 120.687 35.3434 122.091 36.597 123.395L37.0779 123.888L36.597 124.382C33.9128 127.139 31.3248 128.657 29.3124 128.657V128.657ZM27.6295 119.568C26.6593 123.369 26.9097 126.188 28.3154 126.998C29.7112 127.794 32.336 126.567 35.1036 123.875C34.0588 122.74 33.0894 121.538 32.2016 120.276C30.6637 120.14 29.1364 119.904 27.6295 119.568V119.568ZM36.0922 120.456C34.9283 120.456 33.7318 120.405 32.534 120.306L32.2016 120.278L32.0107 120.005C31.3332 119.031 30.6963 118.03 30.1015 117.004C29.5086 115.977 28.9585 114.926 28.4526 113.853L28.3111 113.552L28.4526 113.25C28.9584 112.178 29.5085 111.127 30.1015 110.1C30.687 109.087 31.3305 108.077 32.0107 107.099L32.2016 106.826L32.534 106.797C34.9023 106.597 37.2834 106.597 39.6517 106.797L39.9827 106.826L40.1722 107.099C41.5286 109.046 42.7193 111.104 43.7317 113.25L43.8746 113.552L43.7317 113.853C42.7218 116.001 41.5309 118.059 40.1722 120.005L39.9827 120.278L39.6517 120.306C38.4539 120.405 37.256 120.456 36.0922 120.456V120.456ZM32.9851 118.923C35.0782 119.08 37.1061 119.08 39.2006 118.923C40.3699 117.213 41.4081 115.418 42.3062 113.552C41.4097 111.684 40.3709 109.889 39.1992 108.181C37.1308 108.024 35.0535 108.024 32.9851 108.181C31.8129 109.888 30.7741 111.684 29.8781 113.552C30.7772 115.418 31.8158 117.213 32.9851 118.923V118.923Z" fill="white"/>
<rect x="54.7598" y="19.5457" width="50.9117" height="50.9117" transform="rotate(45 54.7598 19.5457)" fill="#21313C"/>
<path d="M62.4703 51.8109C60.7297 44.132 57.0972 42.0872 56.1755 40.6418C55.6745 39.8555 55.1637 38.6606 55.1637 38.6606C55.1137 39.3416 55.0252 39.773 54.444 40.2906C53.2801 41.3282 48.3338 45.3587 47.9183 54.0843C47.5309 62.2196 53.8968 67.2369 54.7429 67.7553C55.3892 68.0732 56.1808 67.7614 56.5591 67.47C59.6271 65.3632 63.8241 59.7457 62.4665 51.8109" fill="#10AA50"/>
<path d="M55.4269 63.4221C55.2673 65.4366 55.1522 66.6089 54.7458 67.7577C54.7458 67.7577 55.0137 69.6746 55.1999 71.7057H55.8636C56.022 70.2752 56.2638 68.8551 56.5878 67.4527C55.7281 67.0312 55.4595 65.1892 55.4269 63.4221Z" fill="#B8C4C2"/>
<path d="M56.587 67.4541C55.7183 67.053 55.467 65.174 55.4284 63.4221C55.6425 60.5337 55.7044 57.636 55.6138 54.7412C55.5684 53.2223 55.6365 40.6713 55.24 38.8338C55.4004 39.1933 55.7879 40.0379 56.1754 40.641C57.1009 42.0872 60.7304 44.132 62.4694 51.8117C63.8248 59.726 59.6527 65.3337 56.587 67.4541Z" fill="#12924F"/>
<rect x="93.792" y="58.578" width="50.9117" height="50.9117" transform="rotate(45 93.792 58.578)" fill="#339933"/>
<path d="M94.4142 111.187C93.9602 111.187 93.5077 111.068 93.1103 110.838L88.9581 108.381C88.3387 108.035 88.6414 107.912 88.845 107.84C89.6723 107.553 89.8392 107.486 90.7231 106.985C90.815 106.933 90.9366 106.953 91.0314 107.01L94.2218 108.903C94.3378 108.967 94.5004 108.967 94.6065 108.903L107.045 101.725C107.16 101.658 107.234 101.525 107.234 101.388V87.0337C107.234 86.8937 107.159 86.7622 107.04 86.6915L94.6079 79.5186C94.4934 79.4521 94.3406 79.4521 94.2247 79.5186L81.7951 86.6929C81.6749 86.7622 81.5986 86.898 81.5986 87.0337V101.388C81.5986 101.525 81.6749 101.655 81.7951 101.72L85.202 103.689C87.0504 104.614 88.1832 103.525 88.1832 102.43V88.2584C88.1832 88.0576 88.3444 87.9006 88.5452 87.9006H90.122C90.3186 87.9006 90.4827 88.059 90.4827 88.2584V102.43C90.4827 104.898 89.1392 106.312 86.8001 106.312C86.0816 106.312 85.5145 106.312 83.9349 105.533L80.6708 103.656C79.8647 103.191 79.3669 102.32 79.3669 101.388V87.0337C79.3669 86.1018 79.8662 85.2306 80.6708 84.7667L93.1089 77.5797C93.8966 77.1342 94.9417 77.1342 95.7223 77.5797L108.159 84.7667C108.965 85.232 109.466 86.1018 109.466 87.0337V101.388C109.466 102.32 108.965 103.188 108.159 103.656L95.7223 110.838C95.3263 111.068 94.8752 111.187 94.4142 111.187ZM104.457 97.0351C104.457 94.348 102.641 93.6325 98.818 93.1276C94.9558 92.617 94.5627 92.3526 94.5627 91.4489C94.5627 90.7022 94.895 89.7052 97.756 89.7052C100.311 89.7052 101.253 90.2553 101.641 91.9778C101.675 92.1405 101.823 92.2593 101.99 92.2593H103.604C103.704 92.2593 103.799 92.2154 103.867 92.1447C103.935 92.0683 103.971 91.9708 103.962 91.8675C103.711 88.9005 101.74 87.5174 97.756 87.5174C94.2091 87.5174 92.0935 89.0136 92.0935 91.5239C92.0935 94.2462 94.1978 94.9986 97.6018 95.3352C101.675 95.734 101.99 96.3294 101.99 97.1298C101.99 98.52 100.874 99.1125 98.2538 99.1125C94.9629 99.1125 94.2388 98.2866 93.9956 96.649C93.9673 96.4736 93.8174 96.3449 93.6378 96.3449H92.0298C91.8304 96.3449 91.6706 96.5033 91.6706 96.7027C91.6706 98.7986 92.8105 101.296 98.2538 101.296C102.197 101.297 104.457 99.7461 104.457 97.0351Z" fill="white"/>
<rect x="114" width="50.9117" height="50.9117" transform="rotate(45 114 0)" fill="#FAAC61"/>
<path d="M106.482 43.6558C104.133 43.6558 102.277 42.9404 100.913 41.5096C99.56 40.0789 98.8833 38.0922 98.8833 35.5496C98.8833 32.9878 99.5117 30.9528 100.768 29.4446C102.035 27.9365 103.732 27.1824 105.858 27.1824C107.85 27.1824 109.426 27.8398 110.586 29.1546C111.746 30.4597 112.326 32.1854 112.326 34.3315V35.8542H101.378C101.426 37.72 101.895 39.1363 102.784 40.103C103.683 41.0698 104.945 41.5531 106.569 41.5531C108.28 41.5531 109.972 41.1954 111.644 40.4801V42.6262C110.794 42.9936 109.986 43.2546 109.223 43.4093C108.469 43.5736 107.555 43.6558 106.482 43.6558ZM105.829 29.1981C104.553 29.1981 103.533 29.6138 102.77 30.4452C102.016 31.2766 101.571 32.427 101.436 33.8965H109.745C109.745 32.3787 109.406 31.2186 108.73 30.4162C108.053 29.6041 107.086 29.1981 105.829 29.1981Z" fill="white"/>
<path d="M120.273 35.2306L114.748 27.4725H117.488L121.679 33.563L125.856 27.4725H128.567L123.042 35.2306L128.857 43.3658H126.131L121.679 36.9273L117.184 43.3658H114.458L120.273 35.2306Z" fill="white"/>
</svg>
